<svg xmlns="http://www.w3.org/2000/svg" viewBox="0 0 48 48" fill="none">
  <!-- Outer shield shape -->
  <path d="M24 2L6 10v14c0 11.1 7.65 21.44 18 24 10.35-2.56 18-12.9 18-24V10L24 2z" fill="#D96B52" opacity="0.12"/>
  <path d="M24 4.5L8 11.5v12c0 9.8 6.8 18.95 16 21.2 9.2-2.25 16-11.4 16-21.2v-12L24 4.5z" fill="none" stroke="#D96B52" stroke-width="1.5"/>
  <!-- Inner V letterform / checkmark hybrid -->
  <path d="M16 20l6 10 10-16" stroke="#D96B52" stroke-width="3" stroke-linecap="round" stroke-linejoin="round" fill="none"/>
  <!-- Accent line at bottom of shield -->
  <path d="M18 38c3.5 1.8 8.5 1.8 12 0" stroke="#D96B52" stroke-width="1" stroke-linecap="round" opacity="0.5"/>
  <!-- Small data dots -->
  <circle cx="14" cy="30" r="1.2" fill="#4A6B82" opacity="0.5"/>
  <circle cx="18" cy="33" r="1" fill="#4A6B82" opacity="0.4"/>
  <circle cx="34" cy="30" r="1.2" fill="#4A6B82" opacity="0.5"/>
  <circle cx="30" cy="33" r="1" fill="#4A6B82" opacity="0.4"/>
</svg>
